<svg width="41" height="41" viewBox="0 0 41 41" fill="none" xmlns="http://www.w3.org/2000/svg"><g clip-path="url(#a)"><path d="M20.5 40.18a19.23 19.23 0 1 0 0-38.46 19.23 19.23 0 0 0 0 38.46Z" stroke="#F5333F"/><path fill-rule="evenodd" clip-rule="evenodd" d="M33.88 7.1h-23.6c-1.13 0-2.09.9-2.09 2v23.7c0 1.1.63 2 1.76 2h23.6c1.13 0 2.33-.9 2.33-2v-23.7c0-1.1-.87-2-2-2Zm0 0h-23.6c-1.13 0-2.09.9-2.09 2v23.7c0 1.1.63 2 1.76 2h23.6c1.13 0 2.33-.9 2.33-2v-23.7c0-1.1-.87-2-2-2Zm-15.14 10.55h3.73v1.9h.04c.57-1.02 2.25-2.06 4.32-2.06 3.99 0 5.1 2.11 5.1 6.03v7.32h-3.96v-6.6c0-1.75-.7-3.29-2.34-3.29-1.98 0-2.93 1.35-2.93 3.56v6.33h-3.96v-13.19Zm-6.6 13.19h3.96v-13.19h-3.95v13.19Zm4.46-17.8a2.47 2.47 0 1 1-4.94 0 2.47 2.47 0 0 1 4.94 0Z" fill="#F5333F"/></g><defs><clipPath id="a"><path fill="#fff" transform="translate(.5 .95)" d="M0 0h40v40h-40z"/></clipPath></defs></svg>