<svg width="41" height="41" viewBox="0 0 41 41" fill="none" xmlns="http://www.w3.org/2000/svg"><g clip-path="url(#a)"><path d="M20.5 40.18a19.23 19.23 0 1 0 0-38.46 19.23 19.23 0 0 0 0 38.46Z" stroke="#F5333F"/><path d="m27.2 26.3.8-5.03h-4.77v-3.53c0-1.41.5-2.52 2.68-2.52h2.28v-4.64a26.5 26.5 0 0 0-3.97-.4c-4.07 0-6.95 2.52-6.95 7.06v4.03h-4.46v5.04h4.46v13.1c1 .2 2.24.77 3.23.77 1 0 1.74-.57 2.73-.77v-13.1h3.97Z" fill="#F5333F"/></g><defs><clipPath id="a"><path fill="#fff" transform="translate(.5 .95)" d="M0 0h40v40h-40z"/></clipPath></defs></svg>