<svg width="41" height="41" viewBox="0 0 41 41" fill="none" xmlns="http://www.w3.org/2000/svg"><g clip-path="url(#a)"><path d="M20.5 40.18a19.23 19.23 0 1 0 0-38.46 19.23 19.23 0 0 0 0 38.46Z" stroke="#F5333F"/><path d="M17.55 31.65c8.7 0 13.46-7.2 13.46-13.46 0-.2 0-.4-.02-.6a9.62 9.62 0 0 0 2.36-2.46c-.86.39-1.78.64-2.71.75a4.75 4.75 0 0 0 2.08-2.62c-.93.55-1.95.94-3 1.15a4.73 4.73 0 0 0-8.07 4.31 13.43 13.43 0 0 1-9.74-4.94 4.73 4.73 0 0 0 1.46 6.32 4.7 4.7 0 0 1-2.15-.6v.06a4.73 4.73 0 0 0 3.8 4.64 4.7 4.7 0 0 1-2.14.08 4.74 4.74 0 0 0 4.42 3.29 9.5 9.5 0 0 1-7 1.95 13.39 13.39 0 0 0 7.25 2.13" fill="#F5333F"/></g><defs><clipPath id="a"><path fill="#fff" transform="translate(.5 .95)" d="M0 0h40v40h-40z"/></clipPath></defs></svg>