<svg width="202" height="33" viewBox="0 0 202 33" fill="none" xmlns="http://www.w3.org/2000/svg"><path d="M6.65 31.54h.56v-18.21l3.7 17.72.09.44h4l.09-.45 3.5-17.63v18.13h4.16v-30.08h-5.52l-.09.46-4.04 20.4-4.2-20.4-.1-.46h-5.52v30.08h3.36Zm31.95 0h.46l.09-.46 1.04-5.38h6.38l1.04 5.38.1.46h4.34l-.12-.67-5.53-28.95-.1-.46h-5.6l-.09.46-5.53 28.95-.13.67h3.65Zm29.1 0h.56v-20.34l6.32 19.94.12.4h4.32v-30.08h-3.98v17.9l-5.6-17.5-.12-.4h-5.06v30.08h3.44Zm28.24 0h.56v-30.08h-4.35v30.08h3.79Zm17.47 0h.56v-12.54h6.64v-4.05h-6.64v-9.41h8.26v-4.08h-12.61v30.08h3.79Zm26-4.64h0c-.46-.58-.73-1.47-.73-2.75v-15.3c0-1.26.27-2.15.74-2.74.44-.56 1.11-.88 2.13-.88 1.03 0 1.7.32 2.14.88.46.59.73 1.48.73 2.74v15.3c0 1.33-.28 2.23-.73 2.78-.44.53-1.12.84-2.15.84-1 0-1.68-.31-2.13-.87Zm34.29 4.64h.56v-4.05h-8.26v-26.03h-4.35v30.08h12.05Zm12.84-.56v.56h7.34c2.3 0 4.12-.66 5.35-2.06v0c1.2-1.38 1.77-3.3 1.77-5.65v-14.6c0-2.37-.56-4.29-1.77-5.68v0c-1.23-1.42-3.05-2.09-5.35-2.09h-7.34v29.52Zm-140.63-9.16h-5.1l2.52-13.19 2.58 13.19Zm88.48-12.79v14.96c0 2.34.58 4.26 1.82 5.69 1.25 1.45 3.06 2.14 5.33 2.14 2.3 0 4.13-.69 5.4-2.14 1.24-1.43 1.83-3.35 1.83-5.7v-14.95c0-2.36-.6-4.3-1.84-5.71-1.26-1.45-3.09-2.14-5.39-2.14-2.28 0-4.1.69-5.34 2.14-1.23 1.42-1.81 3.35-1.81 5.71Zm59.45 18.46h-2.95v-21.95h2.9c1.05 0 1.74.3 2.19.82.46.54.73 1.41.73 2.71v14.88c0 1.3-.27 2.17-.72 2.72-.44.52-1.12.82-2.15.82Z" fill="#000" stroke="#000" stroke-width=".856" stroke-linecap="round"/><path d="M4.37 31.54h.56v-18.21l3.7 17.72.08.44h4.01l.09-.45 3.5-17.63v18.13h4.16v-30.08h-5.52l-.1.46-4.04 20.4-4.2-20.4-.1-.46h-5.51v30.08h3.36Zm31.94 0h.47l.08-.46 1.05-5.38h6.38l1.04 5.38.09.46h4.35l-.13-.67-5.53-28.95-.08-.46h-5.62l-.08.46-5.53 28.95-.13.67h3.64Zm29.1 0h.57v-20.34l6.31 19.94.13.4h4.32v-30.08h-3.99v17.9l-5.59-17.5-.12-.4h-5.07v30.08h3.45Zm28.24 0h.56v-30.08h-4.34v30.08h3.78Zm17.48 0h.56v-12.54h6.64v-4.05h-6.64v-9.41h8.26v-4.08h-12.61v30.08h3.79Zm26-4.64h0c-.46-.58-.73-1.47-.73-2.75v-15.3c0-1.26.27-2.15.73-2.74.44-.56 1.12-.88 2.13-.88 1.04 0 1.71.32 2.15.88.46.59.72 1.48.72 2.74v15.3c0 1.33-.27 2.23-.73 2.78-.43.53-1.11.84-2.14.84-1.01 0-1.69-.31-2.13-.87Zm34.28 4.64h.56v-4.05h-8.26v-26.03h-4.34v30.08h12.04Zm12.84-.56v.56h7.35c2.3 0 4.12-.66 5.35-2.06v0c1.2-1.38 1.77-3.3 1.77-5.65v-14.6c0-2.37-.57-4.29-1.77-5.68v0c-1.23-1.42-3.05-2.09-5.35-2.09h-7.35v29.52Zm-140.62-9.16h-5.1l2.52-13.19 2.58 13.19Zm88.47-12.79v14.96c0 2.34.59 4.26 1.82 5.69 1.26 1.45 3.07 2.14 5.34 2.14 2.3 0 4.13-.69 5.4-2.14 1.24-1.43 1.82-3.35 1.82-5.7v-14.95c0-2.36-.58-4.3-1.83-5.71-1.26-1.45-3.1-2.14-5.39-2.14-2.28 0-4.1.69-5.35 2.14-1.23 1.42-1.8 3.35-1.8 5.71Zm59.46 18.46h-2.95v-21.95h2.9c1.05 0 1.74.3 2.18.82.46.54.74 1.41.74 2.71v14.88c0 1.3-.28 2.17-.73 2.72-.44.52-1.11.82-2.14.82Z" fill="#fff" stroke="#000" stroke-width=".856" stroke-linecap="round"/><path d="M4.93 31.54h-3.93v-30.08h5.52l.09.45 4.2 20.4 4.05-20.4.09-.45h5.52v30.08h-4.17v-18.13l-3.5 17.63-.08.45h-4.01l-.09-.44-3.7-17.72v18.21Z" fill="#fff" stroke="#000" stroke-width=".856" stroke-linecap="round"/></svg>