<svg width="256" height="41" viewBox="0 0 256 41" fill="none" xmlns="http://www.w3.org/2000/svg"><path d="M8.17 39.5h.72v-23.11l4.69 22.49.12.57h5.08l.11-.58 4.44-22.4v23.02h5.29v-38.18h-7.01l-.11.57-5.14 25.9-5.34-25.9-.11-.57h-7.01v38.18h4.27Zm40.58 0h.59l.1-.58 1.33-6.83h8.1l1.33 6.83.11.58h5.53l-.16-.85-7.03-36.76-.1-.58h-7.14l-.1.58-7.03 36.76-.16.85h4.63Zm36.96 0h.71v-25.82l8.02 25.32.16.5h5.48v-38.19h-5.05v22.73l-7.1-22.24-.16-.5h-6.44v38.19h4.38Zm35.86 0h.71v-38.19h-5.52v38.18h4.81Zm22.2 0h.7v-15.91h8.43v-5.15h-8.43v-11.96h10.49v-5.17h-16.01v38.18h4.81Zm33.02-5.89h0c-.6-.74-.94-1.87-.94-3.49v-19.43c0-1.6.35-2.73.94-3.48.56-.71 1.42-1.11 2.7-1.11 1.32 0 2.18.4 2.72 1.1.59.75.93 1.88.93 3.49v19.43c0 1.7-.35 2.83-.93 3.53-.55.68-1.42 1.07-2.72 1.07-1.29 0-2.14-.4-2.7-1.1Zm43.54 5.89h.7v-5.13h-10.48v-33.06h-5.52v38.18h15.3Zm16.3-.71v.7h9.33c2.92 0 5.23-.82 6.8-2.6v0c1.52-1.76 2.24-4.19 2.24-7.18v-18.53c0-3.01-.72-5.46-2.25-7.23v0c-1.56-1.8-3.87-2.64-6.79-2.64h-9.33v37.48Zm-178.59-11.63h-6.48l3.2-16.75 3.28 16.75Zm112.36-16.24v19c0 2.97.74 5.4 2.31 7.22 1.6 1.84 3.9 2.72 6.78 2.72 2.92 0 5.24-.88 6.85-2.72 1.58-1.81 2.32-4.25 2.32-7.23v-18.99c0-3-.74-5.45-2.32-7.26-1.61-1.84-3.93-2.71-6.85-2.71-2.9 0-5.2.87-6.79 2.71-1.56 1.8-2.3 4.26-2.3 7.26Zm75.5 23.44h-3.74v-27.88h3.7c1.32 0 2.2.39 2.76 1.05.58.69.94 1.8.94 3.44v18.9c0 1.65-.35 2.76-.93 3.44-.55.67-1.42 1.05-2.72 1.05Z" fill="#fff" stroke="#fff" stroke-width="1.34" stroke-linecap="round"/><path d="M5.27 39.5h.72v-23.11l4.69 22.49.12.57h5.08l.11-.58 4.44-22.4v23.02h5.29v-38.18h-7.01l-.11.57-5.14 25.9-5.34-25.9-.11-.57h-7.01v38.18h4.27Zm40.58 0h.59l.1-.58 1.33-6.83h8.1l1.33 6.83.11.58h5.53l-.16-.85-7.03-36.76-.1-.58h-7.14l-.1.58-7.03 36.76-.16.85h4.63Zm36.96 0h.71v-25.82l8.02 25.32.16.5h5.48v-38.19h-5.05v22.73l-7.1-22.24-.16-.5h-6.44v38.19h4.38Zm35.86 0h.71v-38.19h-5.52v38.18h4.81Zm22.2 0h.7v-15.91h8.43v-5.15h-8.43v-11.96h10.49v-5.17h-16v38.18h4.8Zm33.02-5.89h0c-.6-.74-.94-1.87-.94-3.49v-19.43c0-1.6.35-2.73.94-3.48.56-.71 1.42-1.11 2.7-1.11 1.32 0 2.18.4 2.72 1.1.59.75.93 1.88.93 3.49v19.43c0 1.7-.35 2.83-.93 3.53-.55.68-1.41 1.07-2.72 1.07-1.29 0-2.14-.4-2.7-1.1Zm43.54 5.89h.7v-5.13h-10.48v-33.06h-5.52v38.18h15.3Zm16.3-.71v.7h9.33c2.92 0 5.23-.82 6.8-2.6v0c1.52-1.76 2.24-4.19 2.24-7.18v-18.53c0-3.01-.72-5.46-2.25-7.23v0c-1.56-1.8-3.87-2.64-6.79-2.64h-9.33v37.48Zm-178.59-11.63h-6.48l3.2-16.75 3.28 16.75Zm112.36-16.24v19c0 2.97.74 5.4 2.31 7.22 1.6 1.84 3.9 2.72 6.78 2.72 2.92 0 5.24-.88 6.85-2.72 1.58-1.81 2.32-4.25 2.32-7.23v-18.99c0-3-.74-5.45-2.32-7.26-1.6-1.84-3.93-2.71-6.85-2.71-2.9 0-5.2.87-6.79 2.71-1.56 1.8-2.3 4.26-2.3 7.26Zm75.5 23.44h-3.74v-27.88h3.7c1.32 0 2.2.39 2.76 1.05.58.69.94 1.8.94 3.44v18.9c0 1.65-.35 2.76-.93 3.44-.55.67-1.41 1.05-2.72 1.05Z" fill="#212121" stroke="#fff" stroke-width="1.34" stroke-linecap="round"/><path d="M5.99 39.5h-4.99v-38.19h7.01l.11.57 5.34 25.9 5.14-25.9.11-.57h7.01v38.18h-5.29v-23.01l-4.44 22.4-.1.57h-5.09l-.12-.57-4.7-22.5v23.12Z" fill="#212121" stroke="#fff" stroke-width="1.34" stroke-linecap="round"/></svg>